<svg xmlns="http://www.w3.org/2000/svg" viewBox="0 0 24 24">
  <path d="M12,2C6.48,2 2,6.48 2,12C2,17.52 6.48,22 12,22C13.1,22 14,21.1 14,20C14,19.5 13.82,19.04 13.53,18.71C13.29,18.42 13.14,18.06 13.14,17.67C13.14,16.75 13.89,16 14.81,16H17C19.76,16 22,13.76 22,11C22,6.03 17.52,2 12,2M6.5,12C5.67,12 5,11.33 5,10.5C5,9.67 5.67,9 6.5,9C7.33,9 8,9.67 8,10.5C8,11.33 7.33,12 6.5,12M9.5,8C8.67,8 8,7.33 8,6.5C8,5.67 8.67,5 9.5,5C10.33,5 11,5.67 11,6.5C11,7.33 10.33,8 9.5,8M14.5,8C13.67,8 13,7.33 13,6.5C13,5.67 13.67,5 14.5,5C15.33,5 16,5.67 16,6.5C16,7.33 15.33,8 14.5,8M17.5,12C16.67,12 16,11.33 16,10.5C16,9.67 16.67,9 17.5,9C18.33,9 19,9.67 19,10.5C19,11.33 18.33,12 17.5,12Z" />
</svg>
