<?xml version="1.0" encoding="UTF-8" standalone="no"?><!DOCTYPE svg PUBLIC "-//W3C//DTD SVG 1.1//EN" "http://www.w3.org/Graphics/SVG/1.1/DTD/svg11.dtd"><svg width="100%" height="100%" viewBox="0 0 450 450" version="1.1" xmlns="http://www.w3.org/2000/svg" xmlns:xlink="http://www.w3.org/1999/xlink" xml:space="preserve" style="fill-rule:evenodd;clip-rule:evenodd;stroke-linejoin:round;stroke-miterlimit:1.41421;"><path d="M122.284,206.137l-106.262,47.756l8.961,15.731l106.261,-47.756l-8.96,-15.731Z" style="fill:#ebebeb;"/><path d="M143.906,201.543l14.415,-105.003l-19.702,-2.134l-14.415,105.003l19.702,2.134Z" style="fill:#ebebeb;"/><path d="M248.497,12.922l-98.961,58.845l11.041,14.651l98.961,-58.846l-11.041,-14.65Z" style="fill:#ebebeb;"/><g><rect x="321.49" y="198.764" width="10.172" height="183.096" style="fill:#ebebeb;"/><path d="M336.109,197.777l101.72,152.581l-101.72,0l0,-152.581Z" style="fill:#ebebeb;"/><path d="M318.603,197.745l0,152.581l-71.204,0l71.204,-152.581Z" style="fill:#ebebeb;"/><path d="M440.116,377.368l-200.871,0l50.218,61.217l100.435,0l50.218,-61.217Z" style="fill:#ebebeb;"/></g><path d="M402.562,37.902l-353.553,353.554l10.607,10.606l353.553,-353.553l-10.607,-10.607Z" style="fill:#ebebeb;"/></svg>