<?xml version="1.0" encoding="iso-8859-1"?>
<!-- Generator: Adobe Illustrator 16.0.0, SVG Export Plug-In . SVG Version: 6.00 Build 0)  -->
<!DOCTYPE svg PUBLIC "-//W3C//DTD SVG 1.1//EN" "http://www.w3.org/Graphics/SVG/1.1/DTD/svg11.dtd">
<svg version="1.1" id="Capa_1" xmlns="http://www.w3.org/2000/svg" xmlns:xlink="http://www.w3.org/1999/xlink" x="0px" y="0px"
	 width="409.492px" height="409.492px" viewBox="0 0 409.492 409.492" style="enable-background:new 0 0 409.492 409.492;"
	 xml:space="preserve">
<g>
	<g id="Layer_2_45_">
		<g>
			<path d="M208.184,94.402c16.729,0,30.648-0.794,40.699-1.86c38.435-61.251,42.529-88.007,42.529-88.007
				c-24.001,17.332-51.668,13.031-94,0.697c-52.485-15.291-79.333,7.801-79.333,7.801l48.339,79.395
				C176.539,93.552,190.86,94.402,208.184,94.402z"/>
			<path d="M247.133,102.776c-3.763,0.358-7.814,0.662-12.096,0.905c5.014,2.148,10.023,5.557,13.932,9.693
				c10.921,11.565,7.597,22.469,1.43,28.292c-3.452,3.26-7.613,4.982-12.034,4.982c-0.001,0-0.001,0-0.002,0
				c-3.896-0.001-9.856-1.395-16.125-8.033c-0.167-0.177-0.321-0.369-0.485-0.55c1.036,15.029,5.891,41.13,25.447,65.012
				l-7.736,6.336c-11.25-13.737-18.044-28-22.117-40.832c-1.771,7.977-4.307,16.825-7.918,26.425l-9.36-3.521
				c8.964-23.826,10.905-42.827,11.002-54.345c-0.428,0.5-0.855,1.002-1.303,1.476c-6.271,6.639-12.229,8.033-16.125,8.033
				c-4.421,0-8.584-1.723-12.036-4.982c-6.167-5.823-9.491-16.727,1.43-28.292c3.577-3.789,8.082-6.962,12.666-9.121
				c-11.916-0.287-22.886-0.985-31.711-2.034c-0.223-0.026-0.437-0.054-0.656-0.08C106.971,138.639,43.504,232.974,43.504,292.498
				c0,89.051,72.19,116.994,161.242,116.994s161.242-27.943,161.242-116.994C365.988,233.316,303.249,139.725,247.133,102.776z
				 M161.759,300.129l-22.356-11.754l-22.357,11.754l4.271-24.895l-18.088-17.631l24.995-3.631l11.179-22.648l11.178,22.648
				l24.994,3.631l-18.086,17.631L161.759,300.129z M238.174,356.545l-9.746,17.687l-8.108-18.494l-19.834-3.808l15.083-13.426
				l-2.51-20.036l17.431,10.194l18.28-8.58l-4.309,19.73l13.81,14.733L238.174,356.545z M260.431,258.709l-13.183,15.3
				l-4.124-19.769l-18.622-7.811l17.527-10.031l1.672-20.125l14.955,13.568l19.656-4.63l-8.282,18.418l10.476,17.265
				L260.431,258.709z"/>
			<path d="M189.631,119.604c-5.524,5.851-6.163,11.344-1.798,15.465c1.761,1.664,3.715,2.507,5.807,2.507
				c3.028,0,6.323-1.795,9.528-5.19c7.491-7.933,9.846-18.878,7.295-21.285c-0.716-0.676-1.984-0.818-2.923-0.818
				C202.349,110.282,194.649,114.29,189.631,119.604z"/>
			<path d="M228.834,132.386c3.205,3.396,6.5,5.189,9.528,5.19h0.001c2.091,0,4.044-0.843,5.807-2.507
				c4.364-4.121,3.727-9.614-1.799-15.465c-5.018-5.314-12.718-9.322-17.91-9.322c-0.938,0-2.207,0.143-2.923,0.818
				C218.988,113.508,221.344,124.453,228.834,132.386z"/>
		</g>
	</g>
</g>
<g>
</g>
<g>
</g>
<g>
</g>
<g>
</g>
<g>
</g>
<g>
</g>
<g>
</g>
<g>
</g>
<g>
</g>
<g>
</g>
<g>
</g>
<g>
</g>
<g>
</g>
<g>
</g>
<g>
</g>
</svg>
